<?xml version="1.0" encoding="utf-8"?>
<!-- Generator: Adobe Illustrator 23.0.4, SVG Export Plug-In . SVG Version: 6.00 Build 0)  -->
<svg version="1.1" id="Camada_1" xmlns="http://www.w3.org/2000/svg" xmlns:xlink="http://www.w3.org/1999/xlink" x="0px" y="0px"
	 viewBox="0 0 150 97.5" style="enable-background:new 0 0 150 97.5;" xml:space="preserve">
<style type="text/css">
	.st0{fill-rule:evenodd;clip-rule:evenodd;fill:#4F061B;}
	.st1{fill-rule:evenodd;clip-rule:evenodd;fill:#B7B9BC;}
	.st2{fill-rule:evenodd;clip-rule:evenodd;fill:#606060;}
</style>
<path class="st0" d="M63.9,14.4h21.5v15.1c-2.7-3.8-6.1-5.8-10.9-5.8c-5.7,0-9.5,2.8-10.6,6.9V14.4L63.9,14.4z M96.5,28.8h3.6
	c1.6,0,4.8,0,4.8,4.4c0,4.6-2.1,4.8-8.5,4.8L96.5,28.8L96.5,28.8z M96.5,43.6c2.8,0,5.6,0,6.8,0.5c1.9,0.8,2.3,2.8,2.3,4.5
	c0,3.7-2,5.2-5.1,5.2h-4L96.5,43.6L96.5,43.6z M88.7,59.5h11.7c4.6,0,7.7-0.2,10.3-2.9c2.4-2.4,2.8-5.2,2.8-7.8c0-5.3-3.4-8-5.8-8.3
	v-0.2c2.8-0.6,5-3.5,5-7.9c0-3-1.2-6.1-3.9-7.7c-2.1-1.3-5.1-1.5-8.2-1.5h-12L88.7,59.5L88.7,59.5z M35.7,46c0,7.1,1.9,9.1,3.4,10.5
	c2.3,2.1,5.2,3.1,9.5,3.1c1.6,0,5.4-0.3,8-2.3c3-2.3,3.5-4.8,3.8-6.2c0.2-1.5,0.3-2.1,0.3-4.7h-8c0,3.7-1,6.7-4.3,6.7
	C44,53,44,49.4,44,47.5V34.3c0-1,0-2.7,1.3-3.8c0.8-0.7,2-1.1,3-1.1c4,0,4.1,3.8,4.1,5.5h8c-0.1-2.8-0.5-7-3.8-9.5
	c-2.5-1.9-5.8-2.3-8-2.3c-8.5,0-13,4.5-13,12.4L35.7,46L35.7,46z M85.5,30l-5.3,3.5c-1.1-2-3.2-3.8-5.8-3.8c-3.8,0-3.9,2.9-3.9,3.3
	c0,2.4,2.2,3.4,4.3,4.1l4.3,1.6c2,0.7,4.4,2.1,5.7,4c0.2,0.2,0.5,0.7,0.8,1.4L85.5,30L85.5,30z M85.5,53.7v14.5H63.9V54.1
	c2.8,4.1,6.1,5.2,11.4,5.2c1.7,0,4.5-0.5,6.5-1.7C83.7,56.4,84.8,55,85.5,53.7L85.5,53.7z M63.9,51.7V36.3c1.1,4.5,4.9,6.3,9.1,8
	c5,2,6.4,2.5,6.4,5.1c0,3.1-2.9,3.8-4.5,3.8c-2.9,0-5.1-1.8-6.4-4.6L63.9,51.7z"/>
<rect x="-0.7" y="78.6" class="st1" width="150.7" height="0.8"/>
<path class="st0" d="M65.9,6.2h1.9v2.9h-0.5l-0.2-0.6c-0.3,0.5-0.7,0.7-1.3,0.7c-0.6,0-1.1-0.2-1.5-0.7s-0.5-1.1-0.5-1.9
	c0-0.9,0.2-1.6,0.5-2.1s0.9-0.8,1.6-0.8c1.1,0,1.7,0.6,1.8,1.8l-1.1,0.2c-0.1-0.7-0.3-1.1-0.8-1.1c-0.3,0-0.5,0.1-0.6,0.4
	C65,5.3,65,5.8,65,6.5c0,0.6,0.1,1.1,0.2,1.4c0.2,0.3,0.4,0.4,0.7,0.4c0.5,0,0.7-0.4,0.7-1.1h-0.8L65.9,6.2L65.9,6.2z M68.7,3.7h1.7
	c0.3,0,0.6,0,0.8,0c0.2,0,0.3,0.1,0.5,0.2C71.9,4,72,4.2,72.1,4.4s0.2,0.5,0.2,0.8c0,0.7-0.2,1.1-0.8,1.4l1,2.4h-1.3l-0.7-2h-0.6
	v2.1h-1.2L68.7,3.7L68.7,3.7z M69.9,4.6v1.5h0.5c0.5,0,0.7-0.3,0.7-0.8c0-0.2,0-0.3-0.1-0.4s-0.2-0.2-0.2-0.2
	c-0.1,0-0.2-0.1-0.4-0.1H69.9L69.9,4.6z M73,3.7h1.2v3.1c0,0.4,0,0.7,0.1,0.9c0,0.2,0.1,0.3,0.2,0.4s0.3,0.1,0.5,0.1s0.3,0,0.5-0.1
	c0.1-0.1,0.2-0.2,0.2-0.4s0-0.5,0-0.9V3.7h1v3c0,0.6,0,1-0.1,1.4c-0.1,0.3-0.2,0.5-0.5,0.8c-0.3,0.2-0.7,0.3-1.2,0.3
	S74.1,9.1,73.8,9c-0.3-0.2-0.5-0.4-0.6-0.7S73,7.5,73,6.8V3.7L73,3.7z M77.7,3.7h1.6c0.5,0,0.8,0,1.1,0.1c0.3,0.1,0.5,0.3,0.7,0.5
	c0.2,0.3,0.3,0.6,0.3,1s-0.1,0.7-0.2,1s-0.3,0.4-0.6,0.6C80.4,7,80,7.1,79.4,7.1H79v2h-1.2V3.7H77.7z M78.9,4.6v1.6h0.4
	c0.3,0,0.5-0.1,0.6-0.2C80,5.8,80,5.6,80,5.4s0-0.4-0.1-0.5s-0.2-0.2-0.2-0.2c-0.1,0-0.2,0-0.4,0L78.9,4.6L78.9,4.6z M85.5,6.4
	c0,1.9-0.7,2.8-1.9,2.8c-0.7,0-1.1-0.2-1.5-0.7s-0.5-1.2-0.5-2.1c0-1.8,0.7-2.8,1.9-2.8c0.6,0,1.1,0.2,1.4,0.7
	C85.4,4.8,85.5,5.5,85.5,6.4L85.5,6.4z M84.3,6.4c0-0.7-0.1-1.2-0.2-1.5c-0.1-0.2-0.3-0.4-0.5-0.4S83.2,4.7,83,4.9
	c-0.1,0.2-0.2,0.7-0.2,1.4s0.1,1.2,0.2,1.4s0.3,0.4,0.5,0.4S83.9,8,84,7.7C84.2,7.6,84.3,7.1,84.3,6.4z"/>
<path class="st2" d="M9.7,87.6H9.2c-0.1-0.6-0.2-1-0.4-1.2c-0.1-0.3-0.4-0.5-0.6-0.6s-0.6-0.2-1-0.2c-0.5,0-0.9,0.1-1.2,0.4
	c-0.3,0.3-0.5,0.6-0.5,1s0.1,0.7,0.4,0.9c0.2,0.3,0.8,0.6,1.8,1s1.6,0.8,2,1.3c0.3,0.4,0.5,0.9,0.5,1.5c0,0.5-0.1,0.9-0.4,1.4
	c-0.3,0.4-0.6,0.8-1.2,1c-0.5,0.2-1.1,0.4-1.7,0.4c-0.4,0-0.8,0-1.2-0.1c-0.4-0.1-0.9-0.2-1.5-0.4c0.1-0.6,0.1-1.4,0.1-2.4h0.5
	C5,92.3,5.1,92.7,5.3,93s0.4,0.5,0.7,0.6c0.3,0.2,0.7,0.2,1,0.2c0.5,0,1-0.1,1.3-0.4c0.4-0.3,0.6-0.7,0.6-1.2c0-0.4-0.1-0.8-0.4-1.1
	c-0.3-0.3-0.9-0.7-1.8-1.1s-1.6-0.8-1.9-1.2c-0.3-0.4-0.5-0.8-0.5-1.3c0-0.4,0.1-0.9,0.4-1.3c0.2-0.4,0.6-0.7,1.1-1
	c0.5-0.2,1-0.3,1.5-0.3c0.6,0,1.4,0.2,2.3,0.5c0,0.6,0,1,0,1.1C9.7,86.8,9.7,87.2,9.7,87.6L9.7,87.6z M13.8,89.2h1.6
	c0.6,0,1,0,1.1-0.1c0.1,0,0.2-0.1,0.3-0.2s0.1-0.4,0.2-0.9c0-0.1,0-0.1,0.1-0.2h0.4c0,0.7-0.1,1.3-0.1,1.7c0,0.4,0,0.9,0.1,1.6H17
	c-0.1-0.6-0.2-1-0.2-1.1s-0.1-0.2-0.2-0.2c-0.1-0.1-0.4-0.1-1-0.1h-1.8v3.8h2.7h0.2c0.4,0,0.6,0,0.7-0.1c0.2-0.1,0.3-0.2,0.4-0.3
	c0.1-0.1,0.4-0.5,0.7-1.1c0-0.1,0.1-0.2,0.2-0.3h0.5c0,0.1-0.3,0.9-0.8,2.4c-1.6,0-3-0.1-4.3-0.1c-0.9,0-1.9,0-3,0.1V94l1.1-0.2
	c0.2-0.1,0.3-0.1,0.3-0.1c0.1-0.1,0.1-0.2,0.1-0.5V93v-1.5c0-0.3,0-0.9,0-1.7c0-1.2,0-2.2,0-2.8s0-0.9-0.1-1c0-0.1-0.1-0.1-0.1-0.1
	c-0.1,0-0.2-0.1-0.6-0.2l-0.7-0.2v-0.4c0.8,0,1.8,0.1,2.9,0.1c0.6,0,2.1,0,4.4-0.1c0,0.8,0.1,1.5,0.1,2.2H18c-0.2-0.6-0.3-1-0.4-1.2
	c-0.1-0.1-0.2-0.2-0.3-0.3c-0.1-0.1-0.5-0.1-1-0.1h-2.6l-0.1,2.1L13.8,89.2L13.8,89.2z M19.7,85.5v-0.4c0.5,0,1,0.1,1.3,0.1
	c0.2,0,0.7,0,1.4-0.1l1.8,2.3c0.2,0.2,1.5,1.8,3.9,4.7v-1.3c0-0.7,0-1.8,0-3.5c0-0.8,0-1.2-0.1-1.3c0-0.1-0.1-0.1-0.1-0.2
	c-0.1-0.1-0.4-0.1-0.9-0.2c-0.1,0-0.2,0-0.3-0.1v-0.4c0.8,0,1.4,0.1,1.8,0.1s1,0,1.8-0.1v0.4c-0.1,0-0.2,0.1-0.3,0.1
	c-0.6,0.1-0.9,0.2-1,0.2l-0.1,0.1c0,0.1-0.1,0.2-0.1,0.4c0,0.1,0,0.7,0,1.8s0,2.2,0,3.2c0,1.2,0,2.2,0,3.1l-0.4,0.2l-2.7-3.4
	l-3.5-4.3v3.8c0,1.7,0,2.6,0.1,2.7c0,0.1,0.1,0.2,0.1,0.2c0.1,0.1,0.4,0.2,1,0.3c0.1,0,0.2,0,0.3,0.1v0.4c-0.7,0-1.2-0.1-1.7-0.1
	c-0.4,0-1,0-2,0.1V94c0.1,0,0.3-0.1,0.3-0.1c0.5-0.1,0.8-0.2,0.9-0.2c0,0,0.1-0.1,0.1-0.2c0-0.2,0.1-0.9,0.1-2.3c0-1.8,0-2.9,0-3.3
	c0-1.1,0-1.7,0-1.8c0-0.1-0.1-0.2-0.2-0.2s-0.5-0.2-1.2-0.3C20,85.6,19.9,85.5,19.7,85.5L19.7,85.5z M38.2,89.3v-0.5v-1.4v-1.2
	c0-0.2,0-0.3-0.1-0.3c-0.1-0.1-0.2-0.1-0.5-0.2l-0.9-0.2v-0.4c1,0,1.7,0.1,2.2,0.1s1.2,0,2-0.1v0.4c-0.7,0.2-1.1,0.2-1.2,0.3
	s-0.2,0.1-0.2,0.1c0,0.1-0.1,0.3-0.1,0.7c0,0.7,0,1.8,0,3.3V93v0.2c0,0.2,0,0.3,0.1,0.4s0.6,0.2,1.3,0.3v0.4c-1.2,0-2-0.1-2.3-0.1
	c-0.5,0-1.2,0-2,0.1v-0.4l1.2-0.3c0.1,0,0.1-0.1,0.2-0.1C38,93.4,38,93.2,38,93v-3.1c-1.1,0-2,0-2.6,0c-0.7,0-1.3,0-2.1,0V93
	c0,0.2,0,0.4,0.1,0.4s0.2,0.1,0.3,0.2c0,0,0.4,0.1,1.1,0.2v0.4c-1,0-1.8-0.1-2.2-0.1c-0.5,0-1.2,0-2,0.1v-0.4c0.5-0.1,0.8-0.2,1-0.2
	s0.3-0.1,0.3-0.1C32,93.4,32,93.3,32,93c0-0.8,0-2,0-3.5v-3.2v-0.2c0-0.2,0-0.3-0.1-0.3c0-0.1-0.2-0.1-0.3-0.2l-1.1-0.2V85
	c0.9,0,1.6,0.1,2.2,0.1s1.3,0,2-0.1v0.4l-1.1,0.2c-0.1,0-0.2,0.1-0.3,0.1c0,0.1-0.1,0.2-0.1,0.3v3.1c0.7,0,1.4,0,2.1,0
	C36.6,89.3,37.5,89.3,38.2,89.3L38.2,89.3z M41.8,89.8c0-1.4,0.5-2.6,1.4-3.5s2.1-1.4,3.5-1.4c1.3,0,2.4,0.4,3.2,1.2
	c0.8,0.8,1.2,1.9,1.2,3.3c0,1.6-0.4,2.8-1.3,3.7c-0.9,0.9-2.1,1.4-3.5,1.4s-2.4-0.4-3.2-1.2C42.2,92.5,41.8,91.3,41.8,89.8
	L41.8,89.8z M43.2,89.6c0,1.4,0.3,2.5,0.9,3.2c0.6,0.7,1.4,1.1,2.4,1.1c0.6,0,1.2-0.2,1.7-0.5s0.9-0.8,1.1-1.5s0.4-1.3,0.4-2.1
	c0-1-0.2-1.8-0.5-2.4S48.5,86.3,48,86s-1-0.4-1.6-0.4c-0.7,0-1.2,0.2-1.7,0.5s-0.9,0.8-1.1,1.5C43.3,88.2,43.2,88.9,43.2,89.6
	L43.2,89.6z M52,85.5v-0.4c1.2,0,2.1,0.1,2.8,0.1c0.4,0,0.8,0,1.1,0c0.5,0,0.8,0,1,0c0.8,0,1.5,0.2,1.9,0.6s0.6,0.9,0.6,1.6
	c0,0.5-0.1,0.9-0.3,1.2c-0.2,0.3-0.5,0.7-0.8,0.9c-0.3,0.2-0.6,0.3-1.1,0.5l2.2,2.8c0.3,0.3,0.4,0.6,0.5,0.6
	c0.1,0.1,0.2,0.2,0.4,0.2c0.2,0.1,0.7,0.2,1.2,0.3v0.4c-0.7-0.1-1.2-0.1-1.5-0.1c-0.4,0-0.7,0-1.1,0.1c-0.2-0.3-0.5-0.7-0.8-1.2
	s-0.5-0.8-0.6-0.9c0-0.1-0.1-0.1-0.1-0.2L56,90c-0.4,0-0.8,0-1.2-0.1v3.3c0,0.1,0,0.2,0.1,0.3c0.1,0.1,0.4,0.2,1,0.3
	c0.1,0,0.2,0,0.4,0.1v0.4c-0.8,0-1.5-0.1-2.1-0.1s-1.4,0-2.2,0.1V94l0.3-0.1c0.6-0.1,1-0.2,1-0.3c0.1-0.1,0.1-0.2,0.2-0.4
	c0-0.1,0-1.2,0-3.3v-3.1c0-0.5,0-0.7,0-0.8c0-0.1-0.1-0.1-0.1-0.2c-0.2-0.1-0.5-0.2-1-0.3C52.2,85.6,52.1,85.5,52,85.5L52,85.5z
	 M54.7,89.5c0.5,0.1,0.8,0.1,1,0.1c0.8,0,1.4-0.2,1.8-0.5c0.4-0.3,0.6-0.8,0.6-1.5c0-0.6-0.2-1-0.5-1.3s-0.8-0.5-1.5-0.5
	c-0.2,0-0.7,0-1.4,0.1L54.7,89.5L54.7,89.5z M65,85.5v-0.4c0.9,0,1.8,0.1,2.8,0.1l2.9-0.1c1,0,1.8,0.1,2.3,0.4
	c0.6,0.3,1,0.7,1.4,1.4c0.3,0.6,0.5,1.3,0.5,2.2c0,1.5-0.5,2.8-1.6,3.8c-1,1-2.4,1.5-4.2,1.5c-0.1,0-0.5,0-1.2,0s-1.1,0-1.2,0
	c-0.4,0-1,0-1.8,0.1V94c0.7-0.1,1.1-0.2,1.2-0.2s0.1-0.1,0.2-0.1l0.1-0.1c0-0.1,0-0.5,0-1.1c0-1.4,0-2.4,0-3.1v-2.8v-0.2
	c0-0.2-0.1-0.3-0.2-0.4C66.2,85.8,65.8,85.7,65,85.5L65,85.5z M67.7,93.6c0.7,0.1,1.3,0.1,1.8,0.1c0.7,0,1.3-0.1,1.8-0.4
	c0.7-0.3,1.2-0.9,1.6-1.5c0.4-0.7,0.5-1.5,0.5-2.5c0-0.5-0.1-1-0.2-1.4s-0.3-0.8-0.5-1c-0.3-0.4-0.7-0.7-1.1-0.8
	c-0.5-0.2-1.1-0.3-2-0.3c-0.5,0-1.2,0-1.9,0.1c0,1.1,0,2.4,0,3.9C67.7,91.2,67.7,92.5,67.7,93.6L67.7,93.6z M76.1,89.8
	c0-1.4,0.5-2.6,1.4-3.5s2.1-1.4,3.5-1.4c1.3,0,2.4,0.4,3.2,1.2c0.8,0.8,1.2,1.9,1.2,3.3c0,1.6-0.4,2.8-1.3,3.7
	c-0.9,0.9-2.1,1.4-3.5,1.4s-2.4-0.4-3.2-1.2C76.5,92.5,76.1,91.3,76.1,89.8L76.1,89.8z M77.5,89.6c0,1.4,0.3,2.5,0.9,3.2
	s1.4,1.1,2.4,1.1c0.6,0,1.2-0.2,1.7-0.5s0.9-0.8,1.1-1.5s0.4-1.3,0.4-2.1c0-1-0.2-1.8-0.5-2.4s-0.7-1.1-1.2-1.4s-1-0.4-1.6-0.4
	s-1.2,0.2-1.7,0.5s-0.9,0.8-1.1,1.5C77.6,88.2,77.5,88.9,77.5,89.6L77.5,89.6z M89.7,85.5v-0.4c0.8,0,1.5,0.1,2.2,0.1
	c0.4,0,0.9,0,1.4,0s0.8,0,1.1,0c0.9,0,1.6,0.2,2,0.6s0.6,0.8,0.6,1.4c0,0.3-0.1,0.7-0.2,1c-0.2,0.3-0.4,0.6-0.7,0.8
	c-0.2,0.2-0.5,0.3-1,0.4c0.5,0,0.8,0.1,1.1,0.2c0.4,0.2,0.7,0.4,0.9,0.7c0.2,0.3,0.3,0.7,0.3,1.2c0,1-0.4,1.7-1.3,2.3
	c-0.6,0.4-1.5,0.6-2.7,0.6c-0.3,0-0.7,0-1.3,0c-0.4,0-0.6,0-0.7,0s-0.6,0-1.7,0.1v-0.4c0.1,0,0.2-0.1,0.3-0.1c0.6-0.1,1-0.2,1.1-0.3
	c0.1,0,0.1-0.2,0.1-0.3c0-0.4,0.1-1.5,0.1-3.4v-2.9c0-0.6,0-0.9-0.1-1.1c0-0.1-0.1-0.1-0.1-0.1c-0.1,0-0.4-0.1-1-0.2
	C89.9,85.6,89.8,85.5,89.7,85.5L89.7,85.5z M92.3,89.2c0.4,0,0.6,0,0.7,0c0.7,0,1.3-0.1,1.6-0.2c0.3-0.1,0.6-0.3,0.8-0.6
	c0.2-0.3,0.3-0.7,0.3-1.1c0-0.6-0.2-1-0.6-1.3c-0.3-0.2-0.8-0.3-1.4-0.3c-0.4,0-0.8,0-1.2,0.1c-0.1,0.7-0.1,1.5-0.1,2.7
	C92.3,88.7,92.3,88.9,92.3,89.2L92.3,89.2z M92.3,93.6c0.5,0.1,0.9,0.1,1.3,0.1c0.8,0,1.4-0.2,1.8-0.6s0.6-0.9,0.6-1.6
	c0-0.5-0.1-0.8-0.3-1.1c-0.2-0.3-0.5-0.5-0.8-0.6s-0.8-0.2-1.5-0.2c-0.4,0-0.8,0-1,0L92.3,93.6L92.3,93.6z M98.6,89.8
	c0-1.4,0.5-2.6,1.4-3.5s2.1-1.4,3.5-1.4c1.3,0,2.4,0.4,3.2,1.2c0.8,0.8,1.2,1.9,1.2,3.3c0,1.6-0.4,2.8-1.3,3.7
	c-0.9,0.9-2.1,1.4-3.5,1.4s-2.4-0.4-3.2-1.2C99,92.5,98.6,91.3,98.6,89.8L98.6,89.8z M100,89.6c0,1.4,0.3,2.5,0.9,3.2
	s1.4,1.1,2.4,1.1c0.6,0,1.2-0.2,1.7-0.5s0.9-0.8,1.1-1.5s0.4-1.3,0.4-2.1c0-1-0.2-1.8-0.5-2.4s-0.7-1.1-1.2-1.4s-1-0.4-1.6-0.4
	s-1.2,0.2-1.7,0.5s-0.9,0.8-1.1,1.5C100.1,88.2,100,88.9,100,89.6L100,89.6z M108.5,85.5v-0.4c0.6,0,1,0.1,1.3,0.1
	c0.2,0,0.7,0,1.4-0.1l1.8,2.3c0.2,0.2,1.5,1.8,3.9,4.7v-1.3c0-0.7,0-1.8-0.1-3.5c0-0.8,0-1.2-0.1-1.3c0-0.1-0.1-0.1-0.2-0.2
	s-0.4-0.1-0.9-0.2c-0.1,0-0.2,0-0.3-0.1v-0.4c0.8,0,1.4,0.1,1.8,0.1s1.1,0,1.8-0.1v0.4c-0.1,0-0.2,0.1-0.3,0.1
	c-0.6,0.1-0.9,0.2-1,0.2s-0.1,0.1-0.1,0.1c0,0.1-0.1,0.2-0.1,0.4c0,0.1,0,0.7,0,1.8c0,1.1,0,2.2,0,3.2c0,1.2,0,2.2,0,3.1l-0.4,0.2
	l-2.7-3.4l-3.6-4.3v3.8c0,1.7,0,2.6,0.1,2.7c0,0.1,0.1,0.2,0.1,0.2c0.1,0.1,0.4,0.2,1,0.3c0.1,0,0.2,0,0.3,0.1v0.4
	c-0.7,0-1.2-0.1-1.7-0.1c-0.4,0-1.1,0-2,0.1V94c0.2,0,0.3-0.1,0.3-0.1c0.5-0.1,0.8-0.2,0.9-0.2s0.1-0.1,0.1-0.2
	c0-0.2,0.1-0.9,0.1-2.3c0-1.8,0-2.9,0-3.3c0-1.1,0-1.7-0.1-1.8c0-0.1-0.1-0.2-0.2-0.2S109.1,85.7,108.5,85.5
	C108.8,85.6,108.6,85.5,108.5,85.5L108.5,85.5z M119.6,85.5v-0.4c1,0,2.1,0.1,3.3,0.1c1.3,0,2.7,0,4.2-0.1l0.1,2.4h-0.4
	c-0.2-0.7-0.3-1.1-0.4-1.3c-0.1-0.1-0.2-0.2-0.3-0.3s-0.4-0.1-0.9-0.1h-2.8c0,0.6-0.1,1.7-0.1,3.3h1.8c0.3,0,0.6,0,0.7-0.1
	c0.1,0,0.2-0.1,0.2-0.2c0.1-0.1,0.1-0.4,0.2-0.8c0-0.1,0-0.2,0.1-0.3h0.4c0,0.9-0.1,1.5-0.1,1.8c0,0.1,0,0.6,0.1,1.7h-0.4
	c0-0.1,0-0.2,0-0.3c-0.1-0.6-0.2-0.9-0.3-1c-0.1-0.1-0.4-0.2-0.9-0.2h-1.8c0,0.4,0,0.7,0,0.9c0,1.7,0,2.7,0,2.8
	c0,0.1,0.1,0.2,0.1,0.2c0.1,0.1,0.6,0.2,1.5,0.3v0.4c-1,0-1.7-0.1-2.1-0.1l-2.3,0.1v-0.4c0.2,0,0.3-0.1,0.4-0.1
	c0.5-0.1,0.8-0.2,0.9-0.3c0.1-0.1,0.2-0.3,0.2-0.6v-1.8c0-0.3,0-0.8,0-1.6c0-2,0-3.1,0-3.3c0-0.2-0.1-0.3-0.1-0.3
	c-0.1-0.1-0.4-0.2-1-0.3C119.8,85.6,119.7,85.5,119.6,85.5L119.6,85.5z M132.1,85.1v0.4c-0.1,0-0.3,0.1-0.3,0.1
	c-0.6,0.1-0.9,0.2-1,0.3c-0.1,0.1-0.1,0.3-0.1,0.6v0.2v2.6v3.8c0,0.3,0.1,0.5,0.1,0.6c0.1,0.1,0.4,0.2,0.9,0.2c0.1,0,0.2,0,0.4,0.1
	v0.4c-0.7,0-1.4-0.1-2-0.1c-0.7,0-1.4,0-2.2,0.1V94c0.1,0,0.2-0.1,0.3-0.1c0.6-0.1,1-0.2,1.1-0.3c0.1-0.1,0.1-0.3,0.1-0.6v-0.3v-2.4
	c0-2.4,0-3.8,0-4.1c0-0.1-0.1-0.2-0.1-0.3s-0.4-0.2-1-0.3c-0.1,0-0.2,0-0.3-0.1v-0.4c0.9,0,1.7,0.1,2.2,0.1
	C130.7,85.2,131.4,85.2,132.1,85.1L132.1,85.1z M132.5,85.5v-0.4c0.7,0,1.3,0.1,1.7,0.1s0.9,0,1.4-0.1c0.2,0.4,0.3,0.8,0.4,1
	c0.1,0.3,0.7,1.5,1.7,3.6c0.4,0.9,0.8,1.8,1.3,2.6l2.8-5.8c0.2-0.4,0.4-0.8,0.6-1.5c0.6,0,1,0.1,1.3,0.1s0.8,0,1.4-0.1v0.4
	c-0.1,0-0.2,0.1-0.3,0.1c-0.6,0.1-0.9,0.2-1,0.3c-0.1,0.1-0.2,0.3-0.2,0.7v0.1v2.1c0,2.6,0,4.2,0,4.7c0,0.1,0,0.2,0.1,0.3
	c0.1,0.1,0.4,0.2,1.1,0.3c0.1,0,0.1,0,0.2,0.1v0.4c-0.8,0-1.5-0.1-2.1-0.1s-1.3,0-2.1,0.1V94c0.2,0,0.3-0.1,0.4-0.1
	c0.5-0.1,0.8-0.2,0.9-0.2s0.1-0.1,0.1-0.2s0.1-0.5,0.1-1.1v-5.7c-0.4,0.8-1.3,2.7-2.7,5.6c-0.4,0.8-0.7,1.4-0.8,1.9h-0.4
	c-1-2.2-2.2-4.7-3.6-7.5l0.1,6.1c0,0.5,0,0.8,0.1,0.8s0.4,0.2,1,0.3c0.1,0,0.2,0,0.3,0.1v0.4c-0.8,0-1.4-0.1-1.8-0.1s-1.1,0-1.8,0.1
	V94c0.1,0,0.2-0.1,0.3-0.1c0.6-0.1,0.9-0.2,1-0.3c0.1-0.1,0.2-0.4,0.2-0.9v-1.5c0-1.3,0-2.6,0-3.9v-0.8c0-0.3,0-0.5-0.1-0.6
	c0-0.1-0.1-0.1-0.2-0.2c-0.2-0.1-0.5-0.1-1.1-0.2C132.8,85.6,132.6,85.6,132.5,85.5z"/>
<path class="st0" d="M123.1,30.8V27h1.6c0.4,0,0.7,0,0.9,0.1s0.3,0.2,0.4,0.4c0.1,0.2,0.2,0.4,0.2,0.6c0,0.3-0.1,0.5-0.2,0.7
	s-0.4,0.3-0.8,0.3c0.2,0.1,0.3,0.2,0.4,0.3s0.2,0.3,0.4,0.6l0.5,0.7h-0.9L125,30c-0.2-0.3-0.3-0.5-0.4-0.6s-0.2-0.1-0.2-0.2
	s-0.2,0-0.4,0h-0.2v1.6H123.1L123.1,30.8z M123.8,28.6h0.6c0.4,0,0.6,0,0.7,0s0.2-0.1,0.2-0.2c0.1-0.1,0.1-0.2,0.1-0.3
	c0-0.1,0-0.2-0.1-0.3s-0.2-0.1-0.3-0.2c-0.1,0-0.2,0-0.6,0h-0.6C123.9,27.7,123.9,28.6,123.8,28.6z"/>
<path class="st0" d="M124.7,25.1c2.1,0,3.8,1.7,3.8,3.8s-1.7,3.8-3.8,3.8c-2.1,0-3.8-1.7-3.8-3.8C120.9,26.8,122.6,25.1,124.7,25.1
	L124.7,25.1z M124.7,25.9c-1.7,0-3,1.3-3,3s1.3,3,3,3s3-1.3,3-3S126.4,25.9,124.7,25.9z"/>
</svg>
